<?xml version="1.0" encoding="UTF-8" standalone="no"?>
<!DOCTYPE svg PUBLIC "-//W3C//DTD SVG 1.1//EN"
 "http://www.w3.org/Graphics/SVG/1.1/DTD/svg11.dtd">
<!-- Generated by graphviz version 2.43.0 (0)
 -->
<!-- Title: %3 Pages: 1 -->
<svg width="750pt" height="697pt"
 viewBox="0.00 0.00 750.00 697.00" xmlns="http://www.w3.org/2000/svg" xmlns:xlink="http://www.w3.org/1999/xlink">
<g id="graph0" class="graph" transform="scale(1 1) rotate(0) translate(4 693)">
<title>%3</title>
<polygon fill="white" stroke="transparent" points="-4,4 -4,-693 746,-693 746,4 -4,4"/>
<!-- A -->
<g id="node1" class="node">
<title>A</title>
<image xlink:href="icon_router.png" width="166px" height="113px" preserveAspectRatio="xMinYMin meet" x="576" y="-473"/>
<text text-anchor="middle" x="659" y="-412.8" font-family="Times,serif" font-size="14.00">A</text>
</g>
<!-- B -->
<g id="node2" class="node">
<title>B</title>
<image xlink:href="icon_router.png" width="166px" height="113px" preserveAspectRatio="xMinYMin meet" x="432" y="-617"/>
<text text-anchor="middle" x="515" y="-556.8" font-family="Times,serif" font-size="14.00">B</text>
</g>
<!-- A&#45;&#45;B -->
<g id="edge14" class="edge">
<title>A&#45;&#45;B</title>
<path fill="none" stroke="black" d="M602.09,-473.41C592.18,-483.32 581.88,-493.62 571.97,-503.53"/>
<text text-anchor="middle" x="582.03" y="-492.27" font-family="Times,serif" font-size="14.00">1</text>
</g>
<!-- C -->
<g id="node3" class="node">
<title>C</title>
<image xlink:href="icon_router.png" width="166px" height="113px" preserveAspectRatio="xMinYMin meet" x="432" y="-329"/>
<text text-anchor="middle" x="515" y="-268.8" font-family="Times,serif" font-size="14.00">C</text>
</g>
<!-- C&#45;&#45;A -->
<g id="edge13" class="edge">
<title>C&#45;&#45;A</title>
<path fill="none" stroke="black" d="M571.91,-329.41C581.82,-339.32 592.12,-349.62 602.03,-359.53"/>
<text text-anchor="middle" x="581.97" y="-348.27" font-family="Times,serif" font-size="14.00">4</text>
</g>
<!-- C&#45;&#45;B -->
<g id="edge12" class="edge">
<title>C&#45;&#45;B</title>
<path fill="none" stroke="black" d="M515,-329.06C515,-379.51 515,-453.02 515,-503.58"/>
<text text-anchor="middle" x="510" y="-420.12" font-family="Times,serif" font-size="14.00">2</text>
</g>
<!-- D -->
<g id="node4" class="node">
<title>D</title>
<image xlink:href="icon_router.png" width="166px" height="113px" preserveAspectRatio="xMinYMin meet" x="216" y="-329"/>
<text text-anchor="middle" x="299" y="-268.8" font-family="Times,serif" font-size="14.00">D</text>
</g>
<!-- D&#45;&#45;B -->
<g id="edge11" class="edge">
<title>D&#45;&#45;B</title>
<path fill="none" stroke="black" d="M341.42,-329.06C379.26,-379.51 434.39,-453.02 472.31,-503.58"/>
<text text-anchor="middle" x="401.86" y="-420.12" font-family="Times,serif" font-size="14.00">9</text>
</g>
<!-- D&#45;&#45;C -->
<g id="edge10" class="edge">
<title>D&#45;&#45;C</title>
<path fill="none" stroke="black" d="M382.2,-272.5C398.48,-272.5 415.56,-272.5 431.84,-272.5"/>
<text text-anchor="middle" x="402.02" y="-276.3" font-family="Times,serif" font-size="14.00">1</text>
</g>
<!-- E -->
<g id="node5" class="node">
<title>E</title>
<image xlink:href="icon_router.png" width="166px" height="113px" preserveAspectRatio="xMinYMin meet" x="288" y="-113"/>
<text text-anchor="middle" x="371" y="-52.8" font-family="Times,serif" font-size="14.00">E</text>
</g>
<!-- D&#45;&#45;E -->
<g id="edge7" class="edge">
<title>D&#45;&#45;E</title>
<path fill="none" stroke="black" d="M317.92,-215.75C328.46,-184.12 341.54,-144.87 352.08,-113.25"/>
<text text-anchor="middle" x="330" y="-168.3" font-family="Times,serif" font-size="14.00">1</text>
</g>
<!-- F -->
<g id="node6" class="node">
<title>F</title>
<image xlink:href="icon_router.png" width="166px" height="113px" preserveAspectRatio="xMinYMin meet" x="0" y="-185"/>
<text text-anchor="middle" x="83" y="-124.8" font-family="Times,serif" font-size="14.00">F</text>
</g>
<!-- D&#45;&#45;F -->
<g id="edge6" class="edge">
<title>D&#45;&#45;F</title>
<path fill="none" stroke="black" d="M215.8,-217.03C199.52,-206.18 182.44,-194.79 166.16,-183.94"/>
<text text-anchor="middle" x="185.98" y="-204.29" font-family="Times,serif" font-size="14.00">3</text>
</g>
<!-- E&#45;&#45;C -->
<g id="edge9" class="edge">
<title>E&#45;&#45;C</title>
<path fill="none" stroke="black" d="M408.83,-113.25C429.92,-144.88 456.09,-184.13 477.17,-215.75"/>
<text text-anchor="middle" x="438" y="-168.3" font-family="Times,serif" font-size="14.00">3</text>
</g>
<!-- E&#45;&#45;F -->
<g id="edge8" class="edge">
<title>E&#45;&#45;F</title>
<path fill="none" stroke="black" d="M287.7,-77.33C249.49,-86.88 204.3,-98.17 166.11,-107.72"/>
<text text-anchor="middle" x="221.91" y="-96.32" font-family="Times,serif" font-size="14.00">1</text>
</g>
<!-- G -->
<g id="node7" class="node">
<title>G</title>
<image xlink:href="icon_router.png" width="166px" height="113px" preserveAspectRatio="xMinYMin meet" x="72" y="-473"/>
<text text-anchor="middle" x="155" y="-412.8" font-family="Times,serif" font-size="14.00">G</text>
</g>
<!-- G&#45;&#45;B -->
<g id="edge3" class="edge">
<title>G&#45;&#45;B</title>
<path fill="none" stroke="black" d="M238.04,-449.72C296.19,-472.97 373.56,-503.93 431.75,-527.2"/>
<text text-anchor="middle" x="329.9" y="-492.26" font-family="Times,serif" font-size="14.00">4</text>
</g>
<!-- G&#45;&#45;D -->
<g id="edge4" class="edge">
<title>G&#45;&#45;D</title>
<path fill="none" stroke="black" d="M211.91,-359.59C221.82,-349.68 232.12,-339.38 242.03,-329.47"/>
<text text-anchor="middle" x="221.97" y="-348.33" font-family="Times,serif" font-size="14.00">1</text>
</g>
<!-- G&#45;&#45;F -->
<g id="edge5" class="edge">
<title>G&#45;&#45;F</title>
<path fill="none" stroke="black" d="M140.86,-359.94C128.25,-309.49 109.87,-235.98 97.23,-185.42"/>
<text text-anchor="middle" x="114.05" y="-276.48" font-family="Times,serif" font-size="14.00">6</text>
</g>
<!-- H -->
<g id="node8" class="node">
<title>H</title>
<image xlink:href="icon_router.png" width="166px" height="113px" preserveAspectRatio="xMinYMin meet" x="216" y="-689"/>
<text text-anchor="middle" x="299" y="-628.8" font-family="Times,serif" font-size="14.00">H</text>
</g>
<!-- H&#45;&#45;B -->
<g id="edge1" class="edge">
<title>H&#45;&#45;B</title>
<path fill="none" stroke="black" d="M382.2,-604.77C398.48,-599.34 415.56,-593.65 431.84,-588.22"/>
<text text-anchor="middle" x="402.02" y="-600.29" font-family="Times,serif" font-size="14.00">4</text>
</g>
<!-- H&#45;&#45;G -->
<g id="edge2" class="edge">
<title>H&#45;&#45;G</title>
<path fill="none" stroke="black" d="M261.17,-575.75C240.08,-544.12 213.91,-504.87 192.83,-473.25"/>
<text text-anchor="middle" x="217.5" y="-528.3" font-family="Times,serif" font-size="14.00">14</text>
</g>
</g>
</svg>
